<mxfile host="app.diagrams.net" modified="2022-12-30T05:46:13.788Z" agent="5.0 (Windows NT 10.0; Win64; x64) AppleWebKit/537.36 (KHTML, like Gecko) Chrome/107.0.0.0 Safari/537.36" etag="wHsxbYJWkdZUwXOBSny1" version="20.7.4" type="github">
  <diagram name="Page-1" id="edf60f1a-56cd-e834-aa8a-f176f3a09ee4">
    <mxGraphModel dx="1221" dy="609" grid="1" gridSize="10" guides="1" tooltips="1" connect="1" arrows="1" fold="1" page="1" pageScale="1" pageWidth="1100" pageHeight="850" background="none" math="0" shadow="0">
      <root>
        <mxCell id="0" />
        <mxCell id="1" parent="0" />
        <mxCell id="s3X3zcCmWPUDsRRI7S4C-15" style="edgeStyle=orthogonalEdgeStyle;rounded=0;orthogonalLoop=1;jettySize=auto;html=1;exitX=0.5;exitY=1;exitDx=0;exitDy=0;entryX=0.5;entryY=0;entryDx=0;entryDy=0;" edge="1" parent="1" source="s3X3zcCmWPUDsRRI7S4C-2" target="s3X3zcCmWPUDsRRI7S4C-3">
          <mxGeometry relative="1" as="geometry" />
        </mxCell>
        <mxCell id="s3X3zcCmWPUDsRRI7S4C-2" value="Bắt đầu" style="ellipse;whiteSpace=wrap;html=1;" vertex="1" parent="1">
          <mxGeometry x="310" y="70" width="120" height="80" as="geometry" />
        </mxCell>
        <mxCell id="s3X3zcCmWPUDsRRI7S4C-16" style="edgeStyle=orthogonalEdgeStyle;rounded=0;orthogonalLoop=1;jettySize=auto;html=1;exitX=0.5;exitY=1;exitDx=0;exitDy=0;entryX=0.5;entryY=0;entryDx=0;entryDy=0;" edge="1" parent="1" source="s3X3zcCmWPUDsRRI7S4C-3" target="s3X3zcCmWPUDsRRI7S4C-4">
          <mxGeometry relative="1" as="geometry" />
        </mxCell>
        <mxCell id="s3X3zcCmWPUDsRRI7S4C-3" value="Khởi tạo:&lt;br&gt;Hit = 0&lt;br&gt;Miss = 0&lt;br&gt;Fault = 0" style="rounded=0;whiteSpace=wrap;html=1;" vertex="1" parent="1">
          <mxGeometry x="310" y="190" width="120" height="60" as="geometry" />
        </mxCell>
        <mxCell id="s3X3zcCmWPUDsRRI7S4C-17" style="edgeStyle=orthogonalEdgeStyle;rounded=0;orthogonalLoop=1;jettySize=auto;html=1;exitX=0.5;exitY=1;exitDx=0;exitDy=0;entryX=0.5;entryY=0;entryDx=0;entryDy=0;" edge="1" parent="1" source="s3X3zcCmWPUDsRRI7S4C-4" target="s3X3zcCmWPUDsRRI7S4C-6">
          <mxGeometry relative="1" as="geometry" />
        </mxCell>
        <mxCell id="s3X3zcCmWPUDsRRI7S4C-4" value="Nhập vào một trang" style="rounded=0;whiteSpace=wrap;html=1;" vertex="1" parent="1">
          <mxGeometry x="310" y="290" width="120" height="60" as="geometry" />
        </mxCell>
        <mxCell id="s3X3zcCmWPUDsRRI7S4C-18" style="edgeStyle=orthogonalEdgeStyle;rounded=0;orthogonalLoop=1;jettySize=auto;html=1;exitX=1;exitY=0.5;exitDx=0;exitDy=0;entryX=0;entryY=0.5;entryDx=0;entryDy=0;" edge="1" parent="1" source="s3X3zcCmWPUDsRRI7S4C-6" target="s3X3zcCmWPUDsRRI7S4C-7">
          <mxGeometry relative="1" as="geometry" />
        </mxCell>
        <mxCell id="s3X3zcCmWPUDsRRI7S4C-19" style="edgeStyle=orthogonalEdgeStyle;rounded=0;orthogonalLoop=1;jettySize=auto;html=1;exitX=0.5;exitY=1;exitDx=0;exitDy=0;entryX=0.5;entryY=0;entryDx=0;entryDy=0;" edge="1" parent="1" source="s3X3zcCmWPUDsRRI7S4C-6" target="s3X3zcCmWPUDsRRI7S4C-8">
          <mxGeometry relative="1" as="geometry" />
        </mxCell>
        <mxCell id="s3X3zcCmWPUDsRRI7S4C-6" value="Kiểm tra &lt;br&gt;ở trong bộ nhớ" style="rhombus;whiteSpace=wrap;html=1;" vertex="1" parent="1">
          <mxGeometry x="310" y="385" width="120" height="70" as="geometry" />
        </mxCell>
        <mxCell id="s3X3zcCmWPUDsRRI7S4C-28" style="edgeStyle=orthogonalEdgeStyle;rounded=0;orthogonalLoop=1;jettySize=auto;html=1;exitX=1;exitY=0.5;exitDx=0;exitDy=0;entryX=1;entryY=0.5;entryDx=0;entryDy=0;" edge="1" parent="1" source="s3X3zcCmWPUDsRRI7S4C-7" target="s3X3zcCmWPUDsRRI7S4C-12">
          <mxGeometry relative="1" as="geometry" />
        </mxCell>
        <mxCell id="s3X3zcCmWPUDsRRI7S4C-7" value="Hit++" style="rounded=0;whiteSpace=wrap;html=1;" vertex="1" parent="1">
          <mxGeometry x="510" y="390" width="120" height="60" as="geometry" />
        </mxCell>
        <mxCell id="s3X3zcCmWPUDsRRI7S4C-20" style="edgeStyle=orthogonalEdgeStyle;rounded=0;orthogonalLoop=1;jettySize=auto;html=1;exitX=0.5;exitY=1;exitDx=0;exitDy=0;entryX=0.5;entryY=0;entryDx=0;entryDy=0;" edge="1" parent="1" source="s3X3zcCmWPUDsRRI7S4C-8" target="s3X3zcCmWPUDsRRI7S4C-9">
          <mxGeometry relative="1" as="geometry" />
        </mxCell>
        <mxCell id="s3X3zcCmWPUDsRRI7S4C-8" value="Miss++&lt;br&gt;Fault++" style="rounded=0;whiteSpace=wrap;html=1;" vertex="1" parent="1">
          <mxGeometry x="310" y="480" width="120" height="60" as="geometry" />
        </mxCell>
        <mxCell id="s3X3zcCmWPUDsRRI7S4C-21" style="edgeStyle=orthogonalEdgeStyle;rounded=0;orthogonalLoop=1;jettySize=auto;html=1;exitX=0.5;exitY=1;exitDx=0;exitDy=0;entryX=0.5;entryY=0;entryDx=0;entryDy=0;" edge="1" parent="1" source="s3X3zcCmWPUDsRRI7S4C-9" target="s3X3zcCmWPUDsRRI7S4C-11">
          <mxGeometry relative="1" as="geometry" />
        </mxCell>
        <mxCell id="s3X3zcCmWPUDsRRI7S4C-27" style="edgeStyle=orthogonalEdgeStyle;rounded=0;orthogonalLoop=1;jettySize=auto;html=1;exitX=1;exitY=0.5;exitDx=0;exitDy=0;entryX=0;entryY=0.5;entryDx=0;entryDy=0;" edge="1" parent="1" source="s3X3zcCmWPUDsRRI7S4C-9" target="s3X3zcCmWPUDsRRI7S4C-10">
          <mxGeometry relative="1" as="geometry" />
        </mxCell>
        <mxCell id="s3X3zcCmWPUDsRRI7S4C-9" value="Bộ nhớ đẩy" style="rhombus;whiteSpace=wrap;html=1;" vertex="1" parent="1">
          <mxGeometry x="315" y="570" width="110" height="70" as="geometry" />
        </mxCell>
        <mxCell id="s3X3zcCmWPUDsRRI7S4C-30" style="edgeStyle=orthogonalEdgeStyle;rounded=0;orthogonalLoop=1;jettySize=auto;html=1;exitX=1;exitY=0.5;exitDx=0;exitDy=0;entryX=1;entryY=0.5;entryDx=0;entryDy=0;" edge="1" parent="1" source="s3X3zcCmWPUDsRRI7S4C-10" target="s3X3zcCmWPUDsRRI7S4C-12">
          <mxGeometry relative="1" as="geometry" />
        </mxCell>
        <mxCell id="s3X3zcCmWPUDsRRI7S4C-10" value="Thêm vào bộ nhớ&lt;br&gt;" style="rounded=0;whiteSpace=wrap;html=1;" vertex="1" parent="1">
          <mxGeometry x="510" y="575" width="120" height="60" as="geometry" />
        </mxCell>
        <mxCell id="s3X3zcCmWPUDsRRI7S4C-22" style="edgeStyle=orthogonalEdgeStyle;rounded=0;orthogonalLoop=1;jettySize=auto;html=1;exitX=0.5;exitY=1;exitDx=0;exitDy=0;entryX=0.5;entryY=0;entryDx=0;entryDy=0;" edge="1" parent="1" source="s3X3zcCmWPUDsRRI7S4C-11" target="s3X3zcCmWPUDsRRI7S4C-12">
          <mxGeometry relative="1" as="geometry" />
        </mxCell>
        <mxCell id="s3X3zcCmWPUDsRRI7S4C-11" value="Thay thế trang tồn tại lâu nhất trong bộ nhớ" style="rounded=0;whiteSpace=wrap;html=1;" vertex="1" parent="1">
          <mxGeometry x="310" y="670" width="120" height="60" as="geometry" />
        </mxCell>
        <mxCell id="s3X3zcCmWPUDsRRI7S4C-26" style="edgeStyle=orthogonalEdgeStyle;rounded=0;orthogonalLoop=1;jettySize=auto;html=1;exitX=0;exitY=0.5;exitDx=0;exitDy=0;entryX=0;entryY=0.5;entryDx=0;entryDy=0;" edge="1" parent="1" source="s3X3zcCmWPUDsRRI7S4C-12" target="s3X3zcCmWPUDsRRI7S4C-4">
          <mxGeometry relative="1" as="geometry">
            <Array as="points">
              <mxPoint x="270" y="800" />
              <mxPoint x="270" y="320" />
            </Array>
          </mxGeometry>
        </mxCell>
        <mxCell id="s3X3zcCmWPUDsRRI7S4C-29" style="edgeStyle=orthogonalEdgeStyle;rounded=0;orthogonalLoop=1;jettySize=auto;html=1;exitX=0.5;exitY=1;exitDx=0;exitDy=0;entryX=0.5;entryY=0;entryDx=0;entryDy=0;" edge="1" parent="1" source="s3X3zcCmWPUDsRRI7S4C-12" target="s3X3zcCmWPUDsRRI7S4C-13">
          <mxGeometry relative="1" as="geometry" />
        </mxCell>
        <mxCell id="s3X3zcCmWPUDsRRI7S4C-12" value="Hoàn thành" style="rhombus;whiteSpace=wrap;html=1;" vertex="1" parent="1">
          <mxGeometry x="330" y="770" width="80" height="60" as="geometry" />
        </mxCell>
        <mxCell id="s3X3zcCmWPUDsRRI7S4C-13" value="Kết thúc" style="ellipse;whiteSpace=wrap;html=1;" vertex="1" parent="1">
          <mxGeometry x="310" y="880" width="120" height="80" as="geometry" />
        </mxCell>
        <mxCell id="s3X3zcCmWPUDsRRI7S4C-25" value="FIFO" style="text;html=1;strokeColor=none;fillColor=none;align=center;verticalAlign=middle;whiteSpace=wrap;rounded=0;" vertex="1" parent="1">
          <mxGeometry x="340" y="40" width="60" height="30" as="geometry" />
        </mxCell>
        <mxCell id="s3X3zcCmWPUDsRRI7S4C-31" value="Có" style="text;html=1;strokeColor=none;fillColor=none;align=center;verticalAlign=middle;whiteSpace=wrap;rounded=0;" vertex="1" parent="1">
          <mxGeometry x="440" y="390" width="60" height="30" as="geometry" />
        </mxCell>
        <mxCell id="s3X3zcCmWPUDsRRI7S4C-32" value="Không" style="text;html=1;strokeColor=none;fillColor=none;align=center;verticalAlign=middle;whiteSpace=wrap;rounded=0;" vertex="1" parent="1">
          <mxGeometry x="370" y="450" width="60" height="30" as="geometry" />
        </mxCell>
        <mxCell id="s3X3zcCmWPUDsRRI7S4C-33" value="Không" style="text;html=1;strokeColor=none;fillColor=none;align=center;verticalAlign=middle;whiteSpace=wrap;rounded=0;" vertex="1" parent="1">
          <mxGeometry x="430" y="575" width="60" height="30" as="geometry" />
        </mxCell>
        <mxCell id="s3X3zcCmWPUDsRRI7S4C-34" value="Có" style="text;html=1;strokeColor=none;fillColor=none;align=center;verticalAlign=middle;whiteSpace=wrap;rounded=0;" vertex="1" parent="1">
          <mxGeometry x="360" y="640" width="60" height="30" as="geometry" />
        </mxCell>
        <mxCell id="s3X3zcCmWPUDsRRI7S4C-35" value="Không" style="text;html=1;strokeColor=none;fillColor=none;align=center;verticalAlign=middle;whiteSpace=wrap;rounded=0;" vertex="1" parent="1">
          <mxGeometry x="270" y="770" width="60" height="30" as="geometry" />
        </mxCell>
        <mxCell id="s3X3zcCmWPUDsRRI7S4C-36" value="Có" style="text;html=1;strokeColor=none;fillColor=none;align=center;verticalAlign=middle;whiteSpace=wrap;rounded=0;" vertex="1" parent="1">
          <mxGeometry x="350" y="840" width="60" height="30" as="geometry" />
        </mxCell>
      </root>
    </mxGraphModel>
  </diagram>
</mxfile>
